<svg width="20" height="12" viewBox="0 0 20 12" fill="none" xmlns="http://www.w3.org/2000/svg"><path fill-rule="evenodd" clip-rule="evenodd" d="M20 3.67741C20 3.99806 19.7417 4.25805 19.4231 4.25805C18.4687 4.25805 17.6923 5.03947 17.6923 6C17.6923 6.96053 18.4688 7.74195 19.4231 7.74195C19.7417 7.74195 20 8.0019 20 8.32259V11.4194C20 11.74 19.7417 12 19.4231 12H0.576914C0.25832 12 0 11.7401 0 11.4194V8.32259C0 8.0019 0.25832 7.74195 0.576914 7.74195C1.53129 7.74195 2.3077 6.96053 2.3077 6C2.3077 5.03947 1.53125 4.25805 0.576914 4.25805C0.25832 4.25805 0 3.9981 0 3.67741V0.580638C0 0.259948 0.25832 0 0.576914 0H19.4231C19.7417 0 20 0.259948 20 0.580638V3.67741ZM18.8462 10.8387V8.84488C17.5311 8.57515 16.5384 7.402 16.5384 6C16.5384 4.598 17.5311 3.42489 18.8461 3.15512V1.16128H6.73074V2.90323C6.73074 3.22388 6.47242 3.48386 6.15383 3.48386C5.83523 3.48386 5.57691 3.22392 5.57691 2.90323V1.16128H1.15383V3.15512C2.46887 3.42485 3.46152 4.598 3.46152 6C3.46152 7.402 2.46887 8.57511 1.15383 8.84488V10.8387H5.57695V9.09677C5.57695 8.77612 5.83527 8.51614 6.15387 8.51614C6.47246 8.51614 6.73078 8.77608 6.73078 9.09677V10.8387H18.8462Z" fill="#FF7D00"></path></svg>